<?xml version="1.0" encoding="UTF-8"?>
<svg version="1.1" xmlns="http://www.w3.org/2000/svg" width="1200" height="857">
<path d="M0 0 C396 0 792 0 1200 0 C1200 282.81 1200 565.62 1200 857 C804 857 408 857 0 857 C0 574.19 0 291.38 0 0 Z " fill="#FEFEFE" transform="translate(0,0)"/>
<path d="M0 0 C1.46594311 0.34461351 2.93209937 0.6883212 4.3984375 1.03125 C15.07340618 3.64397276 24.42816872 7.6508217 34 13 C34.63534668 13.34546875 35.27069336 13.6909375 35.92529297 14.046875 C46.01072529 19.56158219 54.59167055 26.18642418 63 34 C63.53254395 34.48871582 64.06508789 34.97743164 64.61376953 35.48095703 C75.1713288 45.25429648 83.14080986 56.15057489 89.9375 68.8125 C90.30319092 69.4933667 90.66888184 70.1742334 91.0456543 70.87573242 C93.21839311 75.07642852 94.86088031 79.27679309 96.28393555 83.78466797 C96.97023919 85.90792717 97.74289843 87.97278463 98.5546875 90.05078125 C100.06458674 94.03223004 101.1509357 98.04577861 102.125 102.1875 C102.29386719 102.85330078 102.46273438 103.51910156 102.63671875 104.20507812 C104.23308077 110.92362539 104.45116314 116.86512077 105 124 C141.96 124 178.92 124 217 124 C217 124.66 217 125.32 217 126 C216.34741211 126.07516846 215.69482422 126.15033691 215.02246094 126.2277832 C198.2019612 128.17642779 181.48687295 130.47610981 164.76953125 133.16015625 C162.09651878 133.58701197 159.42340909 134.01314618 156.75 134.4375 C156.07999969 134.54393829 155.40999939 134.65037659 154.71969604 134.76004028 C139.19302857 137.21465366 123.60902063 139.15082041 108 141 C108.4511493 144.33434596 108.91224125 147.66724706 109.375 151 C109.56449219 152.40185547 109.56449219 152.40185547 109.7578125 153.83203125 C110.33284338 157.94350204 110.92892573 161.962918 112.03125 165.96875 C113.38730556 171.06533467 113.70537415 176.25811637 114.125 181.5 C114.21136719 182.51320312 114.29773438 183.52640625 114.38671875 184.5703125 C114.59695672 187.04644858 114.80124567 189.52292026 115 192 C116.05058594 192.09023437 117.10117187 192.18046875 118.18359375 192.2734375 C126.39607712 193.83691949 133.24880711 201.32307445 138 208 C143.1057492 216.9350611 144.525738 226.21745406 142.53515625 236.37109375 C139.27517161 245.95814918 132.45151758 254.38971367 123.640625 259.3203125 C114.65761525 263.21295006 103.37458063 264.12314669 94.078125 260.7421875 C86.61236044 257.5250162 80.48348084 252.83661209 76 246 C76 245.34 76 244.68 76 244 C75.34 244 74.68 244 74 244 C69.14266733 235.3695607 68.53025449 225.66209377 70 216 C72.63911528 207.88099418 77.58597575 199.60180815 85 195 C85.66 195 86.32 195 87 195 C86.91230347 194.41784225 86.82460693 193.83568451 86.73425293 193.23588562 C85.8232931 187.18572686 84.9153913 181.13511488 84.00927734 175.08422852 C83.67054669 172.82499571 83.33103209 170.5658803 82.99072266 168.30688477 C82.50217657 165.06296725 82.01643595 161.81864031 81.53125 158.57421875 C81.37813354 157.56163498 81.22501709 156.54905121 81.06726074 155.50578308 C80.92711548 154.56503433 80.78697021 153.62428558 80.64257812 152.6550293 C80.45604675 151.41259712 80.45604675 151.41259712 80.26574707 150.14506531 C80 148 80 148 80 145 C74.23801597 145.81601239 68.47631131 146.63396227 62.71484375 147.45361328 C60.759839 147.7314738 58.80476237 148.0088291 56.84960938 148.28564453 C54.01933464 148.68645542 51.18931954 149.08905243 48.359375 149.4921875 C46.9725351 149.6885228 46.9725351 149.6885228 45.55767822 149.88882446 C40.96383195 150.54611731 36.40406241 151.27650712 31.84375 152.140625 C24.44907562 153.40277874 16.97409711 153.51388353 9.49127197 153.77685547 C-9.32728627 154.45060787 -28.0961524 155.62030581 -46.875 157 C-48.67682236 157.13213394 -48.67682236 157.13213394 -50.51504517 157.26693726 C-55.19867615 157.61106841 -59.88221193 157.95643937 -64.56556702 158.30430603 C-73.52055194 158.96894594 -82.47738296 159.59634852 -91.4375 160.1875 C-93.16226563 160.30134033 -93.16226563 160.30134033 -94.921875 160.41748047 C-103.61226045 160.98487144 -112.30458795 161.5155049 -121 162 C-120.13337888 170.80894879 -119.20782069 179.55906631 -117.5 188.25 C-115.62228237 197.81015628 -113.83983729 207.2300747 -114 217 C-113.28585937 217.10183594 -112.57171875 217.20367187 -111.8359375 217.30859375 C-103.36677614 219.37338929 -95.82514661 225.90032924 -91 233 C-85.98924082 242.01017247 -84.13848364 252.59648352 -86.68359375 262.71875 C-90.76930533 273.70439773 -97.74491481 280.84297496 -108.1875 286.1015625 C-117.32180277 289.69483602 -127.47171406 289.0420291 -136.43359375 285.32421875 C-147.12015579 279.81014792 -153.75605272 271.36919496 -158.08203125 260.28125 C-160.45367586 251.80388204 -159.99050217 243.23359444 -156.265625 235.24609375 C-153.41272565 230.18307793 -150.58896799 225.89554573 -145.5625 222.875 C-142.71440164 220.2663092 -142.71440164 220.2663092 -142.77734375 217.00390625 C-143.00903448 213.29278979 -143.44232698 209.67592922 -144 206 C-144.14179688 205.0615625 -144.28359375 204.123125 -144.4296875 203.15625 C-144.73673675 201.2816335 -145.05791514 199.40929521 -145.390625 197.5390625 C-146.2054797 192.80663715 -146.92407568 188.0629794 -147.625 183.3125 C-147.76019043 182.43327881 -147.89538086 181.55405762 -148.03466797 180.64819336 C-148.85439333 175.03618685 -149.12641991 169.67165702 -149 164 C-150.2375 164.13277344 -151.475 164.26554688 -152.75 164.40234375 C-162.0183098 165.36088378 -171.24899359 166.12632871 -180.5625 166.4375 C-194.62980842 166.90874637 -208.6571986 167.96616861 -222.69360352 168.98413086 C-223.62673874 169.05050751 -224.55987396 169.11688416 -225.52128601 169.18527222 C-227.27159823 169.30983388 -229.02171241 169.43722778 -230.77156067 169.56814575 C-236.52263231 169.97517051 -242.23543011 170.06824318 -248 170 C-247.08517346 175.83362335 -246.16837343 181.66693397 -245.25 187.5 C-245.11372192 188.36568604 -244.97744385 189.23137207 -244.83703613 190.12329102 C-243.04769267 201.47953096 -241.23517964 212.83062163 -239.29394531 224.16210938 C-237.54448917 234.45441539 -236.15171061 244.79615794 -234.78125 255.14453125 C-234.67661438 255.93298431 -234.57197876 256.72143738 -234.46417236 257.53378296 C-233.59227793 264.1064552 -233.59227793 264.1064552 -233.17724609 267.28198242 C-232.86139032 269.69499591 -232.5404797 272.10729481 -232.21875 274.51953125 C-232.07959167 275.5979705 -232.07959167 275.5979705 -231.93762207 276.69819641 C-231.4475225 280.34076483 -230.82637389 283.89971493 -230 287.48193359 C-228.98713869 291.88825361 -228.33806662 296.28541058 -227.78125 300.76953125 C-227.62613953 301.97291389 -227.62613953 301.97291389 -227.46789551 303.2006073 C-227.14137332 305.73742524 -226.82026039 308.27488459 -226.5 310.8125 C-226.07577444 314.15271474 -225.64885601 317.49256857 -225.21875 320.83203125 C-225.1155545 321.63379288 -225.01235901 322.4355545 -224.90603638 323.26161194 C-224.19309069 328.72120429 -223.35269546 334.14817973 -222.41113281 339.57348633 C-221.8840517 342.68432905 -221.49713833 345.80470287 -221.125 348.9375 C-220.34451555 354.94966927 -219.29633671 360.86511062 -218.125 366.8125 C-214.84338013 383.59449388 -212.20341753 400.45454224 -210.64794922 417.48608398 C-210.12682986 423.09656924 -209.25734971 428.50608031 -208 434 C-206.23090841 441.98576414 -205.15009318 450.01445855 -204.125 458.125 C-202.76198478 468.71821564 -201.18258162 479.25267426 -199.36206055 489.77807617 C-198.16791592 496.75945777 -197.28639052 503.72770722 -196.52124023 510.76708984 C-196.06058973 514.70924457 -195.40253011 518.5951411 -194.6875 522.5 C-192.67658796 533.66524245 -190.86347059 544.86175361 -189.0625 556.0625 C-188.88602936 557.15728668 -188.70955872 558.25207336 -188.52774048 559.3800354 C-186.15137769 574.16921203 -183.94144759 588.95450091 -182.27954102 603.84204102 C-181.61665745 609.66544638 -180.7672643 615.35291452 -179.55859375 621.08984375 C-177.61323188 630.44754865 -176.51696842 639.89139152 -175.375 649.375 C-175.05168987 652.04615754 -174.72669026 654.71705664 -174.39639282 657.38735962 C-174.19295726 659.03282197 -173.99356842 660.67879084 -173.79867554 662.32528687 C-173.6437285 665.96944749 -173.6437285 665.96944749 -172 669 C-171.79701855 670.46419279 -171.65291498 671.93665876 -171.53515625 673.41015625 C-171.45716797 674.31830078 -171.37917969 675.22644531 -171.29882812 676.16210938 C-171.14351506 678.06822426 -170.98982033 679.97447183 -170.83789062 681.88085938 C-170.35413504 687.47747883 -169.45187226 692.57747709 -168 698 C-167.41284628 700.84357367 -166.9193533 703.69942459 -166.4375 706.5625 C-166.31181641 707.25923828 -166.18613281 707.95597656 -166.05664062 708.67382812 C-164.80565565 716.06839375 -164.42651745 723.5213973 -164 731 C-162.80177612 730.60059204 -162.80177612 730.60059204 -161.5793457 730.19311523 C-117.41796875 715.47265625 -117.41796875 715.47265625 -115.19189453 714.73120117 C-113.71324911 714.23793507 -112.23506837 713.74327409 -110.75732422 713.24731445 C-105.438126 711.46483557 -100.10115213 709.74646023 -94.75 708.0625 C-93.61498047 707.70381836 -93.61498047 707.70381836 -92.45703125 707.33789062 C-89.01283766 706.25190945 -85.56752206 705.17211302 -82.11157227 704.12402344 C-73.6117901 701.54345954 -65.19420079 698.74924857 -56.7774353 695.91296387 C-45.53597191 692.12744597 -34.30087777 688.39270396 -22.90673828 685.08862305 C-15.63399015 682.95397319 -8.51201768 680.42240656 -1.36767578 677.89624023 C6.34889421 675.18400636 14.1255151 672.82480082 21.98828125 670.58105469 C33.5257831 667.27277832 33.5257831 667.27277832 44.75 663.0625 C50.43751975 660.67833768 56.35143834 659.07877921 62.26367188 657.35620117 C67.69602251 655.75196642 72.98000174 653.9476859 78.25 651.875 C84.91351901 649.26023345 91.60043152 647.45738856 98.57421875 645.859375 C101.87801692 645.1186254 101.87801692 645.1186254 104.4140625 644.00390625 C108.08097199 642.58034773 111.8346531 641.93793296 115.6875 641.1875 C122.01079326 639.90569425 128.23667525 638.47010169 134.4375 636.6875 C146.86955947 633.11735431 159.44474077 630.10191073 172 627 C180.15749224 624.98138288 188.30218885 622.92630488 196.4296875 620.7902832 C221.85503241 614.10993893 221.85503241 614.10993893 232.9375 612.0625 C237.5379869 611.18288068 241.99924656 609.9066463 246.5 608.625 C253.50130777 606.63206619 260.5214617 604.9138477 267.63916016 603.39038086 C273.01606486 602.238187 278.3213205 600.90413086 283.6171875 599.41796875 C286.15422964 598.9729466 287.56145844 599.30690358 290 600 C289.09459473 600.31638428 289.09459473 600.31638428 288.17089844 600.63916016 C273.26365329 605.85852927 273.26365329 605.85852927 258.98828125 612.56640625 C254.50564479 614.71689982 249.83260902 616.23038564 245.12890625 617.82299805 C241.31527356 619.13051705 237.74296669 620.51188441 234.1875 622.4375 C228.52483708 625.4640957 222.46565957 627.38193264 216.39331055 629.41381836 C209.40212334 631.77162245 202.70355843 634.53081886 196.1875 638 C191.89855684 640.18753326 187.41313884 641.61732687 182.83203125 643.0703125 C179.99926904 643.95932818 179.99926904 643.95932818 177.32421875 645.1171875 C175 646 175 646 172 646 C172 646.66 172 647.32 172 648 C171.16976318 648.30180176 170.33952637 648.60360352 169.48413086 648.91455078 C146.68888166 657.17027312 146.68888166 657.17027312 124.1875 666.1875 C110.07013605 672.14816478 95.87631742 677.63996795 81.125 681.80859375 C74.63373641 683.65298056 68.26447065 685.86856046 61.87402344 688.03125 C56.40470207 689.87479971 50.92713976 691.69376504 45.45101929 693.51699829 C42.23662294 694.58739193 39.02262669 695.6589844 35.80859375 696.73046875 C34.62765137 697.12371338 33.44670898 697.51695801 32.22998047 697.92211914 C30.29049975 698.5693457 28.35176782 699.21883192 26.41455078 699.87280273 C21.30804665 701.59432616 16.16921962 703.16576271 11 704.6875 C-11.08512693 711.25753729 -33.06269476 718.3375021 -54.75 726.125 C-60.01741774 728.01192723 -65.30407915 729.71993324 -70.6875 731.25 C-78.84956929 733.57345136 -86.89251621 736.24165747 -94.9375 738.9375 C-95.59179993 739.15670105 -96.24609985 739.3759021 -96.92022705 739.60174561 C-101.28146105 741.06394568 -105.64085053 742.53159673 -110 744 C-113.35337378 745.12737877 -116.70735148 746.25291391 -120.0625 747.375 C-120.76922852 747.61138184 -121.47595703 747.84776367 -122.20410156 748.09130859 C-127.37602217 749.81239094 -132.57692835 751.42269149 -137.79296875 753.00390625 C-142.02286541 754.31769876 -146.21750334 755.73140716 -150.41479492 757.14477539 C-155.46616235 758.83896231 -160.54768248 760.41139807 -165.6484375 761.94921875 C-168.13084629 762.72750309 -170.58374406 763.53836229 -173.0390625 764.39453125 C-173.71904297 764.62978516 -174.39902344 764.86503906 -175.09960938 765.10742188 C-177.02982656 765.77936826 -178.95642443 766.46168475 -180.8828125 767.14453125 C-184 768 -184 768 -187 767 C-187.07659348 766.44830139 -187.15318695 765.89660278 -187.23210144 765.32818604 C-191.81645303 731.9235349 -191.81645303 731.9235349 -197.43188477 698.68237305 C-198.76146518 691.5194335 -199.77132125 684.39909201 -200.5390625 677.15625 C-201.07699363 672.10911735 -201.78626375 667.08732671 -202.5 662.0625 C-202.61875488 661.20986572 -202.73750977 660.35723145 -202.85986328 659.47875977 C-203.43018823 655.49618449 -204.07199814 651.55707336 -204.90625 647.62109375 C-207.66877184 634.1646422 -209.23483516 620.42974503 -211.14331055 606.83154297 C-213.32904923 591.26486368 -215.64325999 575.74374875 -218.31152344 560.25195312 C-219.77304244 551.66403885 -220.96927841 543.0687127 -221.92456055 534.40966797 C-222.51490955 529.22585968 -223.32958876 524.14117594 -224.328125 519.01953125 C-226.44211643 508.14346561 -227.98318885 497.17626769 -229.58935547 486.21606445 C-230.12753807 482.54518816 -230.6708299 478.87509432 -231.21484375 475.20507812 C-231.562798 472.84639811 -231.91046447 470.48767562 -232.2578125 468.12890625 C-232.41823029 467.04436661 -232.57864807 465.95982697 -232.743927 464.84242249 C-233.42428946 460.18869313 -234.06610803 455.54590203 -234.54638672 450.86694336 C-234.75321819 447.21026243 -234.75321819 447.21026243 -236 445 C-236.32711071 442.95233123 -236.60824655 440.89724463 -236.8671875 438.83984375 C-237.02904541 437.57978516 -237.19090332 436.31972656 -237.35766602 435.02148438 C-237.44202911 434.35463623 -237.52639221 433.68778809 -237.61331177 433.00073242 C-239.32047337 419.45986641 -239.32047337 419.45986641 -241.5625 406 C-242.91005084 398.76692981 -243.91219259 391.51407983 -244.87524414 384.22070312 C-245.73517205 377.77152393 -246.74558944 371.36429486 -247.85371399 364.95375061 C-248.80967174 359.33752426 -249.60665271 353.70964877 -250.35546875 348.0625 C-252.0656267 335.35874001 -253.92930319 322.67909596 -255.8125 310 C-255.986745 308.82369019 -256.16098999 307.64738037 -256.34051514 306.4354248 C-258.63653234 290.94404169 -261.00413345 275.46671597 -263.4854126 260.0039978 C-265.79607482 245.58210903 -267.8833511 231.13152091 -269.90869141 216.66699219 C-271.09165506 208.23212158 -272.30908854 199.80379973 -273.61328125 191.38671875 C-273.73712692 190.57362747 -273.8609726 189.76053619 -273.98857117 188.92280579 C-274.57522521 184.83847128 -274.57522521 184.83847128 -276 181 C-276.26678469 179.21110201 -276.48716425 177.41517124 -276.68359375 175.6171875 C-276.80669922 174.53179687 -276.92980469 173.44640625 -277.05664062 172.328125 C-277.30794602 170.04962277 -277.55797341 167.77097916 -277.80664062 165.4921875 C-278.34791362 160.735716 -278.87795769 156.08124165 -280.09765625 151.4453125 C-281 148 -281 148 -281 144 C-279.72125 143.93941406 -278.4425 143.87882813 -277.125 143.81640625 C-275.4166589 143.73192784 -273.70832599 143.64728359 -272 143.5625 C-271.16082031 143.52318359 -270.32164062 143.48386719 -269.45703125 143.44335938 C-265.59386203 143.24870356 -261.7721434 143.00813344 -257.9375 142.4921875 C-253.61646438 141.95205805 -249.34751995 141.7358026 -245 141.5625 C-237.89745331 141.24250663 -230.83080916 140.7607679 -223.75 140.125 C-210.84850159 138.98472733 -197.92549819 138.18713477 -185 137.375 C-183.92681519 137.30669983 -182.85363037 137.23839966 -181.7479248 137.16802979 C-178.64462307 136.97110111 -175.5411137 136.7778804 -172.4375 136.5859375 C-171.03869598 136.4970224 -171.03869598 136.4970224 -169.6116333 136.40631104 C-164.39583495 136.08951402 -159.22542972 135.94283734 -154 136 C-154.24121582 134.93048096 -154.24121582 134.93048096 -154.48730469 133.83935547 C-156.98072964 120.0305306 -155.62848116 104.46049461 -152 91 C-151.77183594 90.03449219 -151.54367187 89.06898438 -151.30859375 88.07421875 C-148.56011462 76.97036306 -143.72660606 66.85376104 -138 57 C-137.53464844 56.15179688 -137.06929687 55.30359375 -136.58984375 54.4296875 C-131.14761817 45.10413472 -123.55994813 37.61439651 -116 30 C-114.69675781 28.67742187 -114.69675781 28.67742187 -113.3671875 27.328125 C-84.43479239 -0.32928321 -38.15567221 -9.96063864 0 0 Z " fill="#060606" transform="translate(642,46)"/>
<path d="M0 0 C0.66 0 1.32 0 2 0 C2.04898438 1.11375 2.09796875 2.2275 2.1484375 3.375 C2.22364151 4.91668215 2.29918105 6.45834797 2.375 8 C2.4059375 8.72445312 2.436875 9.44890625 2.46875 10.1953125 C2.72737076 15.28152075 3.28478557 20.27328084 3.96875 25.3203125 C5.14924534 34.24365676 5.61120969 43.17474446 6.00537109 52.16259766 C6.12457395 54.86534007 6.2549183 57.56737694 6.38671875 60.26953125 C7.87469053 91.82566147 7.87469053 91.82566147 5.625 103.125 C4.0973942 111.92479462 3.4837294 120.71856489 3 129.625 C2.39844075 140.61286077 1.46633435 151.49301409 0.10546875 162.41699219 C-0.84752726 170.22626508 -1.48638422 178.0252569 -2 185.875 C-2.58822601 194.82312831 -3.35346191 203.71611255 -4.375 212.625 C-5.42115715 221.77617877 -6.26073709 230.92718556 -6.9765625 240.109375 C-7.06118744 241.19322479 -7.14581238 242.27707458 -7.23300171 243.39376831 C-7.65479944 248.83158763 -8.06626576 254.27001169 -8.46630859 259.70947266 C-9.29600302 270.73243987 -10.35321741 281.65989695 -11.98547363 292.59603882 C-12.81795721 298.23148484 -13.31853302 303.80907285 -13.5625 309.5 C-13.78310675 314.52717569 -14.13070668 319.39770582 -14.9375 324.375 C-15.9903755 331.10725502 -16.43809216 337.82728395 -16.875 344.625 C-17.60111677 355.71028263 -18.66987419 366.71597735 -19.9375 377.75 C-21.28987197 389.5540796 -22.57375296 401.35829459 -23.6875 413.1875 C-23.86623657 415.05390137 -23.86623657 415.05390137 -24.04858398 416.95800781 C-24.64883689 423.43293805 -25.1200059 429.89833873 -25.46484375 436.390625 C-25.88384341 444.10683373 -26.67912534 451.74364517 -27.61386108 459.41262817 C-28.0727057 463.19014674 -28.51140575 466.96999426 -28.94921875 470.75 C-29.03828995 471.51868912 -29.12736115 472.28737823 -29.21913147 473.07936096 C-31.15326387 489.92531224 -32.8864686 506.84332888 -33.65478516 523.78491211 C-34.07136704 532.55342673 -35.06189576 541.27471977 -36 550 C-34.96359375 549.72285156 -33.9271875 549.44570313 -32.859375 549.16015625 C-31.48958778 548.79425418 -30.11979587 548.42836969 -28.75 548.0625 C-28.06808594 547.88009766 -27.38617188 547.69769531 -26.68359375 547.50976562 C-24.78970056 547.00411453 -22.89487972 546.50194154 -21 546 C-20.36288086 545.81840332 -19.72576172 545.63680664 -19.06933594 545.44970703 C-7.98438754 543.0407317 6.09303164 544.35588646 17 547 C17.89203125 547.20625 18.7840625 547.4125 19.703125 547.625 C36.78607943 551.92014283 52.72515493 559.387479 66 571 C66.64839844 571.51691406 67.29679688 572.03382813 67.96484375 572.56640625 C77.34618285 580.22111852 85.068052 589.93058363 91.3125 600.25 C91.7036499 600.89388672 92.0947998 601.53777344 92.49780273 602.20117188 C93.40328543 603.76146573 94.21197258 605.37721578 95 607 C94.67 607.66 94.34 608.32 94 609 C93.55011719 608.52691406 93.10023438 608.05382812 92.63671875 607.56640625 C79.98694022 594.56172411 64.60075392 582.23027412 47 577 C45.66307511 576.46725953 44.32948164 575.92605275 43 575.375 C20.46719723 567.00358584 -11.86973806 570.69676564 -33.77734375 579.51953125 C-43.28333496 583.886526 -52.55405607 588.63520012 -61.66796875 593.7734375 C-64.06057141 595.03185833 -66.48513948 596.01366769 -69 597 C-69.12550995 588.56278229 -68.82226013 580.30356272 -67.9765625 571.91015625 C-67.81720718 570.25142738 -67.81720718 570.25142738 -67.65463257 568.55918884 C-67.31721788 565.05970111 -66.97139216 561.56110932 -66.625 558.0625 C-66.28892071 554.60821679 -65.95458579 551.15376751 -65.62030029 547.6993103 C-65.40059206 545.43472045 -65.17961711 543.17025311 -64.95733643 540.90591431 C-64.42221605 535.44294873 -63.90368211 529.9794367 -63.42480469 524.51123047 C-63.29082779 522.98700722 -63.29082779 522.98700722 -63.15414429 521.43199158 C-62.98801038 519.52452487 -62.82493382 517.61678853 -62.66543579 515.70875549 C-62.59198944 514.86570358 -62.51854309 514.02265167 -62.44287109 513.15405273 C-62.35010391 512.05346779 -62.35010391 512.05346779 -62.25546265 510.9306488 C-62 509 -62 509 -61 506 C-60.74395426 503.54174108 -60.53039887 501.0967626 -60.3515625 498.6328125 C-60.23359581 497.10571022 -60.11559297 495.57861073 -59.99755859 494.05151367 C-59.93687195 493.24797455 -59.8761853 492.44443542 -59.81365967 491.61654663 C-58.75150865 477.58917753 -57.49984033 463.60223999 -55.98925781 449.6159668 C-55.180384 442.03738297 -54.56116335 434.48433668 -54.2109375 426.87109375 C-54 424 -54 424 -53.5078125 422.09765625 C-52.70478308 418.78052703 -52.66616662 415.39718425 -52.5 412 C-52.2988668 407.88794348 -52.01550761 403.99806145 -51 400 C-50.82146517 397.58552895 -50.68051897 395.16818458 -50.5625 392.75 C-50.26875273 387.35445509 -49.79597259 382.04528805 -49.0625 376.6875 C-48.08114841 369.4570188 -47.51833407 362.21456374 -47 354.9375 C-46.91613037 353.76525879 -46.83226074 352.59301758 -46.74584961 351.38525391 C-46.57761406 349.03125162 -46.40940094 346.67724773 -46.24121094 344.32324219 C-45.11356815 328.78733776 -43.50126223 313.32504628 -41.73306274 297.85153198 C-40.4466338 286.5601371 -39.36813704 275.2824776 -38.59570312 263.94213867 C-38.27226772 259.22445649 -37.78164422 254.66543894 -37 250 C-36.67351334 246.37910937 -36.4383737 242.75180403 -36.1875 239.125 C-35.33672336 227.47888804 -34.23830283 215.86701414 -33.0625 204.25 C-32.975448 203.38815094 -32.888396 202.52630188 -32.79870605 201.63833618 C-32.0648451 194.38193463 -31.32396221 187.12625931 -30.57324219 179.87158203 C-29.03820117 165.02967799 -27.6425196 150.18449598 -26.4375 135.3125 C-26.37325836 134.52523529 -26.30901672 133.73797058 -26.24282837 132.92684937 C-25.60660375 125.10693676 -24.99964805 117.2898687 -24.54296875 109.45703125 C-23.53177756 92.54977252 -21.24430211 76.28986526 -15.71655273 60.22070312 C-14.48162119 56.39346723 -13.63451139 52.48268511 -12.75 48.5625 C-9.82850755 35.95310946 -6.41751692 23.48224743 -3 11 C-2.42947271 8.90891276 -1.85914879 6.81777001 -1.2890625 4.7265625 C-0.859375 3.15104167 -0.4296875 1.57552083 0 0 Z " fill="#060606" transform="translate(337,200)"/>
<path d="M0 0 C1.57184443 1.32230448 3.13465656 2.65543268 4.6875 4 C5.45707031 4.63679688 6.22664062 5.27359375 7.01953125 5.9296875 C19.76930758 16.74636316 29.56953521 31.07440284 34.69921875 46.95703125 C35.6683107 50.15040787 35.6683107 50.15040787 37.375 53.625 C40.1883664 60.85937074 40.73579366 68.30028561 40.6875 76 C40.04969604 76.00586624 39.41189209 76.01173248 38.75476074 76.01777649 C-1.00115478 76.33741875 -1.00115478 76.33741875 -40.6875 78.5 C-41.52434326 78.56571198 -42.36118652 78.63142395 -43.22338867 78.6991272 C-51.31626991 79.14464757 -51.31626991 79.14464757 -59.25993347 80.5057373 C-61.33833042 81.00622002 -63.22581747 81.18713208 -65.35913086 81.28125 C-66.14352036 81.31798828 -66.92790985 81.35472656 -67.73606873 81.39257812 C-68.99399986 81.44575195 -68.99399986 81.44575195 -70.27734375 81.5 C-71.14766739 81.54060547 -72.01799103 81.58121094 -72.91468811 81.62304688 C-75.69296545 81.75253039 -78.47143468 81.87686095 -81.25 82 C-84.90516421 82.16229677 -88.5600461 82.32967047 -92.21484375 82.5 C-93.05144028 82.53544922 -93.8880368 82.57089844 -94.74998474 82.60742188 C-98.7126401 82.79227705 -102.42969059 83.13506953 -106.3125 84 C-109.12742947 84.17895112 -111.93257948 84.32354413 -114.75 84.4375 C-122.06852197 84.76908584 -129.33486364 85.34350565 -136.625 86.0625 C-144.89542935 86.86938877 -152.9969139 87.25542756 -161.3125 87 C-167.08182088 66.70042912 -160.07375879 44.42401765 -150.38671875 26.55859375 C-147.44495312 21.38523932 -144.04732561 16.62875953 -140.3125 12 C-139.46751953 10.92685547 -139.46751953 10.92685547 -138.60546875 9.83203125 C-104.73607896 -31.1761058 -40.00552353 -31.43731433 0 0 Z " fill="#FCFCFC" transform="translate(677.3125,93)"/>
<path d="M0 0 C-0.60360352 0.21092285 -1.20720703 0.4218457 -1.82910156 0.63916016 C-16.98758374 5.95989392 -16.98758374 5.95989392 -31.5234375 12.7421875 C-36.22634331 15.13072957 -40.73912895 17.23070113 -46.0625 16.6875 C-46.701875 16.460625 -47.34125 16.23375 -48 16 C-47.34 13.69 -46.68 11.38 -46 9 C-45.15405273 8.80365967 -44.30810547 8.60731934 -43.43652344 8.4050293 C-40.23809403 7.66217813 -37.03987942 6.91841472 -33.84179688 6.17407227 C-32.4688324 5.8547074 -31.09578806 5.53568564 -29.72265625 5.21704102 C-27.72634086 4.75371489 -25.73035194 4.28900044 -23.734375 3.82421875 C-23.07900757 3.6725827 -22.42364014 3.52094666 -21.74841309 3.36471558 C-16.62011853 2.16977858 -11.53554029 0.8369703 -6.46191406 -0.57104492 C-3.91665692 -1.0145214 -2.41915907 -0.83313237 0 0 Z " fill="#121212" transform="translate(932,646)"/>
<path d="M0 0 C4.30348869 3.95392733 7.31358476 8.22728909 10.375 13.1875 C10.83777344 13.91130859 11.30054688 14.63511719 11.77734375 15.38085938 C12.20917969 16.07373047 12.64101563 16.76660156 13.0859375 17.48046875 C13.4782959 18.10848389 13.8706543 18.73649902 14.27490234 19.38354492 C14.51418457 19.9169751 14.7534668 20.45040527 15 21 C14.67 21.66 14.34 22.32 14 23 C13.53851563 22.5153125 13.07703125 22.030625 12.6015625 21.53125 C7.41503139 16.20121803 1.88794049 11.53660988 -4 7 C-0.25 5.875 -0.25 5.875 2 7 C1.34 4.69 0.68 2.38 0 0 Z " fill="#202020" transform="translate(417,786)"/>
<path d="M0 0 C-3.54117749 1.29301051 -7.08302795 2.58416782 -10.625 3.875 C-11.62402344 4.23980469 -12.62304688 4.60460937 -13.65234375 4.98046875 C-18.41594057 6.71555369 -23.17665339 8.43611629 -28 10 C-28.33 9.34 -28.66 8.68 -29 8 C-31.52733235 7.34444881 -31.52733235 7.34444881 -34 7 C-34 6.67 -34 6.34 -34 6 C-32.83984375 5.74605469 -31.6796875 5.49210938 -30.484375 5.23046875 C-28.90619704 4.88305299 -27.3280759 4.53537904 -25.75 4.1875 C-24.93257324 4.00807861 -24.11514648 3.82865723 -23.27294922 3.64379883 C-17.59816498 2.38713587 -11.98002744 0.98869716 -6.3828125 -0.58203125 C-3.84577036 -1.0270534 -2.43854156 -0.69309642 0 0 Z " fill="#131313" transform="translate(932,646)"/>
<path d="M0 0 C4.81397943 4.05387741 5.88541926 7.0217942 7 13 C1.37458159 12.54996653 -1.61487125 11.31558515 -6 8 C-5.525625 7.38125 -5.05125 6.7625 -4.5625 6.125 C-2.97582559 4.09294454 -2.97582559 4.09294454 -2 2 C-1.34 1.34 -0.68 0.68 0 0 Z " fill="#171717" transform="translate(412,780)"/>
<path d="M0 0 C3.63 0 7.26 0 11 0 C10.67 0.99 10.34 1.98 10 3 C7.78515625 3.94921875 7.78515625 3.94921875 5.0625 4.6875 C4.16660156 4.93886719 3.27070312 5.19023438 2.34765625 5.44921875 C0 6 0 6 -2 6 C-1.49396008 3.83125748 -1.00016187 2.00032373 0 0 Z " fill="#090909" transform="translate(574,770)"/>
<path d="M0 0 C3.37244652 3.99697365 6.71374722 8.27090179 9 13 C8.67 13.66 8.34 14.32 8 15 C4.33333333 11.33333333 0.66666667 7.66666667 -3 4 C-2.34 3.67 -1.68 3.34 -1 3 C-0.67 2.01 -0.34 1.02 0 0 Z " fill="#282828" transform="translate(423,794)"/>
<path d="M0 0 C0.66 2.64 1.32 5.28 2 8 C-0.31 7.67 -2.62 7.34 -5 7 C-5.6875 5.1875 -5.6875 5.1875 -6 3 C-4.04862098 0.26806937 -3.44686768 0 0 0 Z " fill="#0F0F0F" transform="translate(417,785)"/>
<path d="M0 0 C1 3 1 3 0 6 C-0.99 6.495 -0.99 6.495 -2 7 C-2 8.65 -2 10.3 -2 12 C-3.65 12.33 -5.3 12.66 -7 13 C-7 9.16235973 -5.73464665 7.88513915 -3.5 4.8125 C-2.8503125 3.91144531 -2.200625 3.01039063 -1.53125 2.08203125 C-1.0259375 1.39496094 -0.520625 0.70789063 0 0 Z " fill="#E0E0E0" transform="translate(782,287)"/>
<path d="M0 0 C0.66 0.33 1.32 0.66 2 1 C2 1.99 2 2.98 2 4 C1.4225 4.103125 0.845 4.20625 0.25 4.3125 C-2.32049158 5.09792798 -3.93657284 6.30504197 -6 8 C-7.32 7.34 -8.64 6.68 -10 6 C-8.3811004 4.96951963 -6.75467511 3.95085322 -5.125 2.9375 C-4.22007812 2.36902344 -3.31515625 1.80054688 -2.3828125 1.21484375 C-1.20332031 0.61349609 -1.20332031 0.61349609 0 0 Z " fill="#282828" transform="translate(554,56)"/>
<path d="M0 0 C0.99 0.33 1.98 0.66 3 1 C3 1.99 3 2.98 3 4 C4.65 3.67 6.3 3.34 8 3 C8.66 4.65 9.32 6.3 10 8 C5.76570244 6.68938409 1.92592596 5.05643741 -2 3 C-1.34 2.01 -0.68 1.02 0 0 Z " fill="#CACACA" transform="translate(378,752)"/>
<path d="M0 0 C-2 3 -2 3 -3.875 3.625 C-4.57625 3.74875 -5.2775 3.8725 -6 4 C-6.639375 4.20625 -7.27875 4.4125 -7.9375 4.625 C-10.51199874 5.09309068 -12.48181657 4.62954586 -15 4 C-12.19836511 2.13224341 -10.11958197 1.27321694 -6.9375 0.3125 C-6.05964844 0.04050781 -5.18179687 -0.23148438 -4.27734375 -0.51171875 C-2 -1 -2 -1 0 0 Z " fill="#1B1B1B" transform="translate(508,769)"/>
<path d="M0 0 C-10.37357631 4.77676538 -10.37357631 4.77676538 -16 3 C-13.63496183 0.63496183 -12.35963958 0.45078941 -9.125 -0.1875 C-8.26132812 -0.36667969 -7.39765625 -0.54585937 -6.5078125 -0.73046875 C-4.00753003 -0.9991907 -2.36944548 -0.7769577 0 0 Z " fill="#5C5C5C" transform="translate(932,646)"/>
<path d="M0 0 C1.32 0 2.64 0 4 0 C2.7508258 3.45925163 1.32472205 6.14693203 -1 9 C-1.66 8.34 -2.32 7.68 -3 7 C-2.61121812 3.98694043 -1.73543126 2.60314689 0 0 Z " fill="#0F0F0F" transform="translate(525,116)"/>
<path d="M0 0 C0.66 0.33 1.32 0.66 2 1 C-2.625 6.75 -2.625 6.75 -6 9 C-6.99 10.485 -6.99 10.485 -8 12 C-8.66 12 -9.32 12 -10 12 C-7.75066455 6.93899525 -4.58147862 3.10886049 0 0 Z " fill="#2D2D2D" transform="translate(727,241)"/>
<path d="M0 0 C-0.60328125 0.26554688 -1.2065625 0.53109375 -1.828125 0.8046875 C-2.62734375 1.15789063 -3.4265625 1.51109375 -4.25 1.875 C-5.03890625 2.22304688 -5.8278125 2.57109375 -6.640625 2.9296875 C-8.78868608 3.90413905 -10.89829202 4.92986429 -13 6 C-13.33 5.67 -13.66 5.34 -14 5 C-15.32594105 4.63837971 -16.65938457 4.30271961 -18 4 C-15.56592995 3.13475247 -13.12856816 2.28257135 -10.6875 1.4375 C-9.99720703 1.19064453 -9.30691406 0.94378906 -8.59570312 0.68945312 C-3.33984375 -1.11328125 -3.33984375 -1.11328125 0 0 Z " fill="#BBBBBB" transform="translate(728,727)"/>
<path d="M0 0 C0.33 0 0.66 0 1 0 C0.67 5.94 0.34 11.88 0 18 C-0.33 18 -0.66 18 -1 18 C-1.09087891 16.96939453 -1.09087891 16.96939453 -1.18359375 15.91796875 C-1.26738281 15.01691406 -1.35117187 14.11585938 -1.4375 13.1875 C-1.51871094 12.29417969 -1.59992188 11.40085937 -1.68359375 10.48046875 C-1.93489767 7.87256441 -1.93489767 7.87256441 -3 5 C-1.625 2.3125 -1.625 2.3125 0 0 Z " fill="#535353" transform="translate(319,542)"/>
<path d="M0 0 C4.62 0 9.24 0 14 0 C10.83759418 2.10827055 9.49342531 2.33817465 5.8125 2.625 C4.46091797 2.73714844 4.46091797 2.73714844 3.08203125 2.8515625 C2.05142578 2.92503906 2.05142578 2.92503906 1 3 C0.67 2.01 0.34 1.02 0 0 Z " fill="#202020" transform="translate(839,171)"/>
<path d="M0 0 C0.33 0 0.66 0 1 0 C1.33 2.97 1.66 5.94 2 9 C2.99 8.67 3.98 8.34 5 8 C5.66 8.66 6.32 9.32 7 10 C3.535 11.485 3.535 11.485 0 13 C0 8.71 0 4.42 0 0 Z " fill="#343434" transform="translate(268,784)"/>
<path d="M0 0 C0.99 0 1.98 0 3 0 C3.66 1.32 4.32 2.64 5 4 C5.33 3.34 5.66 2.68 6 2 C6.99 2.66 7.98 3.32 9 4 C7.68942607 4.36122881 6.37646376 4.71380311 5.0625 5.0625 C4.33160156 5.25972656 3.60070312 5.45695313 2.84765625 5.66015625 C2.23792969 5.77230469 1.62820313 5.88445313 1 6 C0 5 0 5 -0.0625 2.4375 C-0.041875 1.633125 -0.02125 0.82875 0 0 Z " fill="#282828" transform="translate(455,808)"/>
<path d="M0 0 C0.66 0.33 1.32 0.66 2 1 C-0.12780579 3.34058637 -2.11562221 4.70700306 -5 6 C-5 6.66 -5 7.32 -5 8 C-7.97 7.505 -7.97 7.505 -11 7 C-7.53252172 4.22601737 -3.93597489 2.04087587 0 0 Z " fill="#CBCBCB" transform="translate(280,790)"/>
<path d="M0 0 C0.99 0.33 1.98 0.66 3 1 C2.67 1.33 2.34 1.66 2 2 C2.66 2.66 3.32 3.32 4 4 C0.535 5.485 0.535 5.485 -3 7 C-3.33 6.01 -3.66 5.02 -4 4 C-2.68 2.68 -1.36 1.36 0 0 Z " fill="#0F0F0F" transform="translate(282,784)"/>
<path d="M0 0 C0.33 0 0.66 0 1 0 C1 4.29 1 8.58 1 13 C1.66 13 2.32 13 3 13 C2.67 13.66 2.34 14.32 2 15 C1.67 15 1.34 15 1 15 C0.67 16.65 0.34 18.3 0 20 C-0.33 20 -0.66 20 -1 20 C-0.67 13.4 -0.34 6.8 0 0 Z " fill="#BABABA" transform="translate(306,680)"/>
<path d="M0 0 C0.7425 0.0825 1.485 0.165 2.25 0.25 C2.58 1.24 2.91 2.23 3.25 3.25 C-0.05 3.58 -3.35 3.91 -6.75 4.25 C-3.42692308 0.31153846 -3.42692308 0.31153846 0 0 Z " fill="#0B0B0B" transform="translate(836.75,170.75)"/>
<path d="M0 0 C0.66 0.99 1.32 1.98 2 3 C0.35 3.33 -1.3 3.66 -3 4 C-3.33 3.34 -3.66 2.68 -4 2 C-6.52733235 1.34444881 -6.52733235 1.34444881 -9 1 C-9 0.67 -9 0.34 -9 0 C-5.67638732 -0.83090317 -3.22353302 -1.33387573 0 0 Z " fill="#242424" transform="translate(907,652)"/>
<path d="M0 0 C0.625 2.0625 0.625 2.0625 1 4 C0.01 4.33 -0.98 4.66 -2 5 C-3.65 3.35 -5.3 1.7 -7 0 C-2.25 -1.125 -2.25 -1.125 0 0 Z " fill="#E3E3E3" transform="translate(775,242)"/>
<path d="M0 0 C-1.28965176 1.37562854 -2.62689293 2.70766393 -4 4 C-4.66 4 -5.32 4 -6 4 C-6 3.34 -6 2.68 -6 2 C-6.99 1.67 -7.98 1.34 -9 1 C-5.57367167 -0.61798838 -3.61944899 -1.34053666 0 0 Z " fill="#CBCBCB" transform="translate(318,776)"/>
<path d="M0 0 C-1.97420135 2.52259061 -2.96745642 2.9929808 -6.1875 3.6875 C-7.5796875 3.8421875 -7.5796875 3.8421875 -9 4 C-8.67 3.01 -8.34 2.02 -8 1 C-5.07175348 0.02391783 -3.04386724 -0.08226668 0 0 Z " fill="#222222" transform="translate(585,771)"/>
<path d="M0 0 C-1.625 2.0625 -1.625 2.0625 -4 4 C-7.25 3.75 -7.25 3.75 -10 3 C-7.28464405 0.28464405 -3.67870689 -1.83935344 0 0 Z " fill="#C8C8C8" transform="translate(746,721)"/>
<path d="M0 0 C0.33 0 0.66 0 1 0 C1.08333357 4.8333472 0.95261487 9.23692563 0 14 C-0.33 14 -0.66 14 -1 14 C-1.22331199 12.41870971 -1.42804644 10.83478911 -1.625 9.25 C-1.74101562 8.36828125 -1.85703125 7.4865625 -1.9765625 6.578125 C-2.00207817 3.77140122 -1.44843844 2.36615134 0 0 Z " fill="#3C3C3C" transform="translate(333,392)"/>
<path d="M0 0 C1.32 0 2.64 0 4 0 C4.33 1.65 4.66 3.3 5 5 C2.03 4.505 2.03 4.505 -1 4 C-0.67 2.68 -0.34 1.36 0 0 Z " fill="#030303" transform="translate(414,788)"/>
<path d="M0 0 C0.66 0.99 1.32 1.98 2 3 C-0.97 5.475 -0.97 5.475 -4 8 C-4 4.09161134 -2.49432124 2.88405893 0 0 Z " fill="#2B2B2B" transform="translate(493,271)"/>
<path d="M0 0 C2.1875 0.3125 2.1875 0.3125 4 1 C2.35 2.65 0.7 4.3 -1 6 C-1.66 5.01 -2.32 4.02 -3 3 C-1.75 1.4375 -1.75 1.4375 0 0 Z " fill="#171717" transform="translate(546,318)"/>
<path d="M0 0 C0.66 0.66 1.32 1.32 2 2 C0.7260411 4.03833424 -0.61061923 6.03852126 -2 8 C-2.66 8 -3.32 8 -4 8 C-2.25 2.25 -2.25 2.25 0 0 Z " fill="#2E2E2E" transform="translate(505,102)"/>
<path d="M0 0 C0.66 0.33 1.32 0.66 2 1 C1.34 2.32 0.68 3.64 0 5 C-2.31 4.67 -4.62 4.34 -7 4 C-4.66603411 2.44402274 -2.57343171 1.07918104 0 0 Z " fill="#CECECE" transform="translate(537,329)"/>
<path d="M0 0 C0.66 0 1.32 0 2 0 C2 2.31 2 4.62 2 7 C1.01 7.33 0.02 7.66 -1 8 C-0.67 5.36 -0.34 2.72 0 0 Z " fill="#515151" transform="translate(337,200)"/>
<path d="M0 0 C0 0.66 0 1.32 0 2 C0.99 2.33 1.98 2.66 3 3 C2.01 4.485 2.01 4.485 1 6 C-0.65 4.35 -2.3 2.7 -4 1 C-2 0 -2 0 0 0 Z " fill="#1F1F1F" transform="translate(688,98)"/>
<path d="M0 0 C0.99 0.33 1.98 0.66 3 1 C1.35 2.65 -0.3 4.3 -2 6 C-2 2 -2 2 0 0 Z " fill="#1F1F1F" transform="translate(540,98)"/>
<path d="M0 0 C-0.99 0 -1.98 0 -3 0 C-3.33 0.99 -3.66 1.98 -4 3 C-5.65 2.67 -7.3 2.34 -9 2 C-5.945634 -1.054366 -3.9532319 -1.22686507 0 0 Z " fill="#383838" transform="translate(579,746)"/>
<path d="M0 0 C1.32 0.66 2.64 1.32 4 2 C3.01 2.99 2.02 3.98 1 5 C0.01 4.01 -0.98 3.02 -2 2 C-1.34 1.34 -0.68 0.68 0 0 Z " fill="#E6E6E6" transform="translate(690,64)"/>
</svg>
